<svg width="50" height="50" viewBox="0 0 50 50" fill="none" xmlns="http://www.w3.org/2000/svg">
<path fill-rule="evenodd" clip-rule="evenodd" d="M4 0C1.79086 0 0 1.79086 0 4V46C0 48.2091 1.79086 50 4 50H46C48.2091 50 50 48.2091 50 46V4C50 1.79086 48.2091 0 46 0H4ZM8.8154 13.0625C9.48597 12.4375 9.82126 11.5374 9.82126 10.3623C9.82126 9.25879 9.49899 8.39941 8.85446 7.78418C8.20993 7.16895 7.30498 6.86133 6.13962 6.86133H3.89841V14H5.91989C7.18291 14 8.14808 13.6875 8.8154 13.0625ZM6.21774 8.10156C7.57191 8.10156 8.24899 8.86816 8.24899 10.4014C8.24899 11.9671 7.51983 12.75 6.06149 12.75H5.41208V8.10156H6.21774ZM12.0332 8.54102H10.4023L12.5703 13.9609L12.4824 14.2295C12.3717 14.555 12.2171 14.7975 12.0185 14.957C11.8232 15.1198 11.5937 15.2012 11.33 15.2012C11.1185 15.2012 10.9231 15.18 10.7441 15.1377V16.3193C10.9915 16.3747 11.2438 16.4023 11.5009 16.4023C12.025 16.4023 12.4824 16.2607 12.873 15.9775C13.2669 15.6943 13.5696 15.2679 13.7812 14.6982L16.0908 8.54102H14.4941L13.4834 11.6123C13.3792 11.9085 13.3092 12.2243 13.2734 12.5596H13.2441C13.2116 12.195 13.1513 11.8792 13.0634 11.6123L12.0332 8.54102ZM20.4267 14H21.916V10.4404C21.916 9.79264 21.7516 9.29785 21.4228 8.95605C21.094 8.611 20.6123 8.43848 19.9775 8.43848C19.6064 8.43848 19.2744 8.50684 18.9814 8.64355C18.6917 8.77702 18.4638 8.97559 18.2978 9.23926H18.2148L18.0146 8.54102H16.8769V14H18.3662V11.4316C18.3662 10.7871 18.459 10.3265 18.6445 10.0498C18.83 9.76986 19.1312 9.62988 19.5478 9.62988C19.8538 9.62988 20.0768 9.72917 20.2168 9.92773C20.3567 10.123 20.4267 10.4176 20.4267 10.8115V14ZM26.6279 13.2578L26.916 14H27.956V10.3623C27.956 9.71126 27.7607 9.22624 27.3701 8.90723C26.9795 8.58822 26.4179 8.42871 25.6855 8.42871C24.9205 8.42871 24.2239 8.5931 23.5957 8.92188L24.0888 9.92773C24.678 9.66406 25.1907 9.53223 25.6269 9.53223C26.1933 9.53223 26.4765 9.80892 26.4765 10.3623V10.6016L25.5293 10.6309C24.7122 10.6602 24.1002 10.8132 23.6933 11.0898C23.2897 11.3633 23.0879 11.7897 23.0879 12.3691C23.0879 12.9225 23.2376 13.349 23.5371 13.6484C23.8398 13.9479 24.2532 14.0977 24.7773 14.0977C25.2037 14.0977 25.5488 14.0374 25.8125 13.917C26.0794 13.7933 26.3382 13.5736 26.5888 13.2578H26.6279ZM25.9004 11.4902L26.4765 11.4707V11.9199C26.4765 12.2487 26.3724 12.5124 26.164 12.7109C25.959 12.9095 25.6839 13.0088 25.3388 13.0088C24.8571 13.0088 24.6162 12.7988 24.6162 12.3789C24.6162 12.0859 24.722 11.8678 24.9336 11.7246C25.1452 11.5814 25.4674 11.5033 25.9004 11.4902ZM32.8925 14H34.3818V11.2607C34.3818 10.6943 34.4713 10.2809 34.6504 10.0205C34.8326 9.76009 35.1061 9.62988 35.4707 9.62988C35.7539 9.62988 35.9606 9.72917 36.0908 9.92773C36.2243 10.123 36.291 10.4176 36.291 10.8115V14H37.7851V10.4404C37.7851 9.74056 37.6256 9.23275 37.3066 8.91699C36.9909 8.59798 36.5237 8.43848 35.9052 8.43848C35.5472 8.43848 35.2249 8.50846 34.9384 8.64844C34.6552 8.78841 34.4404 8.98535 34.2939 9.23926H34.1621C33.8724 8.7054 33.319 8.43848 32.5019 8.43848C32.1439 8.43848 31.8265 8.51009 31.5498 8.65332C31.2731 8.79329 31.0615 8.98861 30.915 9.23926H30.832L30.6318 8.54102H29.4941V14H30.9834V11.4316C30.9834 10.7904 31.0696 10.3298 31.2422 10.0498C31.4147 9.76986 31.6914 9.62988 32.0722 9.62988C32.3554 9.62988 32.5621 9.72917 32.6924 9.92773C32.8258 10.123 32.8925 10.4176 32.8925 10.8115V14ZM40.0654 6.40234C39.525 6.40234 39.2549 6.64486 39.2549 7.12988C39.2549 7.61816 39.525 7.8623 40.0654 7.8623C40.3356 7.8623 40.5374 7.79883 40.6709 7.67188C40.8076 7.54167 40.8759 7.361 40.8759 7.12988C40.8759 6.64486 40.6058 6.40234 40.0654 6.40234ZM39.3183 14H40.8076V8.54102H39.3183V14ZM42.0429 11.2998C42.0429 13.165 42.8925 14.0977 44.5918 14.0977C44.9661 14.0977 45.2754 14.0684 45.5195 14.0098C45.7669 13.9512 46.011 13.8454 46.2519 13.6924V12.418C46.0078 12.5807 45.7636 12.7012 45.5195 12.7793C45.2754 12.8542 45.0101 12.8916 44.7236 12.8916C43.9489 12.8916 43.5615 12.3577 43.5615 11.29C43.5615 10.1898 43.9489 9.63965 44.7236 9.63965C44.9254 9.63965 45.1272 9.67057 45.3291 9.73242C45.5309 9.79102 45.749 9.86751 45.9834 9.96191L46.4228 8.80957C45.9215 8.56217 45.3551 8.43848 44.7236 8.43848C43.861 8.43848 43.1985 8.68425 42.7363 9.17578C42.2741 9.66406 42.0429 10.3721 42.0429 11.2998ZM7.41403 27.541C7.87953 27.1699 8.11227 26.6621 8.11227 26.0176C8.11227 25.5521 7.98858 25.1598 7.74118 24.8408C7.49378 24.5186 7.03643 24.1979 6.36911 23.8789C5.86455 23.638 5.54391 23.472 5.4072 23.3809C5.27373 23.2865 5.17608 23.1904 5.11423 23.0928C5.05238 22.9919 5.02145 22.8747 5.02145 22.7412C5.02145 22.5264 5.09795 22.3522 5.25095 22.2188C5.40394 22.0853 5.62367 22.0186 5.91013 22.0186C6.15101 22.0186 6.39515 22.0495 6.64255 22.1113C6.8932 22.1732 7.20895 22.2822 7.58981 22.4385L8.07809 21.2617C7.71026 21.1022 7.35707 20.9785 7.01852 20.8906C6.68324 20.8027 6.33005 20.7588 5.95895 20.7588C5.20375 20.7588 4.6113 20.9395 4.18161 21.3008C3.75518 21.6621 3.54196 22.1585 3.54196 22.79C3.54196 23.1253 3.60707 23.4183 3.73727 23.6689C3.86748 23.9196 4.04164 24.1393 4.25974 24.3281C4.47783 24.5169 4.80498 24.7139 5.24118 24.9189C5.70668 25.1403 6.01429 25.3014 6.16403 25.4023C6.31703 25.5033 6.43259 25.609 6.51071 25.7197C6.58884 25.8271 6.6279 25.9508 6.6279 26.0908C6.6279 26.3415 6.53838 26.5303 6.35934 26.6572C6.18356 26.7842 5.92966 26.8477 5.59763 26.8477C5.32093 26.8477 5.01494 26.8037 4.67966 26.7158C4.34763 26.6279 3.94072 26.4766 3.45895 26.2617V27.668C4.04489 27.9544 4.71872 28.0977 5.48044 28.0977C6.30726 28.0977 6.95179 27.9121 7.41403 27.541ZM12.8388 28H14.3281V24.4404C14.3281 23.7959 14.1621 23.3011 13.83 22.9561C13.498 22.611 13.0114 22.4385 12.3701 22.4385C11.6474 22.4385 11.1201 22.7054 10.7881 23.2393H10.7099L10.7441 22.7998C10.7669 22.3538 10.7783 22.0706 10.7783 21.9502V20.4023H9.28903V28H10.7783V25.4316C10.7783 24.7969 10.8711 24.3379 11.0566 24.0547C11.2422 23.7715 11.5433 23.6299 11.9599 23.6299C12.5459 23.6299 12.8388 24.0238 12.8388 24.8115V28ZM16.6084 20.4023C16.068 20.4023 15.7978 20.6449 15.7978 21.1299C15.7978 21.6182 16.068 21.8623 16.6084 21.8623C16.8786 21.8623 17.0804 21.7988 17.2138 21.6719C17.3506 21.5417 17.4189 21.361 17.4189 21.1299C17.4189 20.6449 17.1487 20.4023 16.6084 20.4023ZM15.8613 28H17.3506V22.541H15.8613V28ZM20.4072 27.3994C20.7718 27.8649 21.2747 28.0977 21.916 28.0977C22.3424 28.0977 22.7135 27.9854 23.0293 27.7607C23.345 27.5361 23.5875 27.209 23.7568 26.7793C23.9293 26.3496 24.0156 25.8434 24.0156 25.2607C24.0156 24.3753 23.8333 23.6836 23.4687 23.1855C23.1041 22.6875 22.5996 22.4385 21.955 22.4385C21.2715 22.4385 20.7555 22.7087 20.4072 23.249H20.3388L20.1289 22.541H18.9179V30.4023H20.4072V28.1904C20.4072 28.1188 20.3812 27.8551 20.3291 27.3994H20.4072ZM20.6709 23.9717C20.8401 23.7438 21.1087 23.6299 21.4765 23.6299C21.8281 23.6299 22.0853 23.765 22.248 24.0352C22.414 24.3021 22.497 24.7041 22.497 25.2412C22.497 26.3415 22.1634 26.8916 21.4961 26.8916C21.1185 26.8916 20.8418 26.7646 20.666 26.5107C20.4935 26.2568 20.4072 25.8369 20.4072 25.251V25.0898C20.4137 24.569 20.5016 24.1963 20.6709 23.9717ZM5.90036 38.0303H5.41208V36.1016H5.87106C6.35934 36.1016 6.71904 36.1732 6.95016 36.3164C7.18454 36.4596 7.30173 36.7005 7.30173 37.0391C7.30173 37.3809 7.18779 37.6315 6.95993 37.791C6.73207 37.9505 6.37888 38.0303 5.90036 38.0303ZM5.41208 42V39.2607H6.21774L7.92184 42H9.60153C9.27601 41.5312 8.57614 40.4945 7.50192 38.8896C7.9251 38.7041 8.25225 38.4486 8.48337 38.123C8.71449 37.7943 8.83005 37.4199 8.83005 37C8.83005 36.2806 8.5973 35.7451 8.13181 35.3936C7.66631 35.0387 6.94854 34.8613 5.97849 34.8613H3.89841V42H5.41208ZM11.833 40.4863C11.6572 40.2096 11.5693 39.8011 11.5693 39.2607C11.5693 38.7171 11.6572 38.3119 11.833 38.0449C12.0088 37.7747 12.2952 37.6396 12.6924 37.6396C13.0927 37.6396 13.3808 37.7747 13.5566 38.0449C13.7324 38.3151 13.8203 38.7204 13.8203 39.2607C13.8203 39.8044 13.7324 40.2145 13.5566 40.4912C13.3841 40.7646 13.0993 40.9014 12.7021 40.9014C12.3017 40.9014 12.012 40.763 11.833 40.4863ZM14.6406 41.3457C15.1093 40.8444 15.3437 40.1494 15.3437 39.2607C15.3437 38.6878 15.2363 38.1881 15.0215 37.7617C14.8066 37.3353 14.499 37.0081 14.0986 36.7803C13.6982 36.5524 13.236 36.4385 12.7119 36.4385C11.8688 36.4385 11.2145 36.6859 10.749 37.1807C10.2835 37.6755 10.0508 38.3688 10.0508 39.2607C10.0508 39.8337 10.1582 40.335 10.373 40.7646C10.5879 41.1943 10.8955 41.5247 11.2959 41.7559C11.6963 41.9837 12.1585 42.0977 12.6826 42.0977C13.5192 42.0977 14.1718 41.847 14.6406 41.3457ZM20.2412 41.3018L20.4414 42H21.584V36.541H20.0947V39.1094C20.0947 39.7539 20.0019 40.2161 19.8164 40.4961C19.6308 40.7728 19.3297 40.9111 18.9131 40.9111C18.6071 40.9111 18.3841 40.8135 18.2441 40.6182C18.1041 40.4196 18.0341 40.1234 18.0341 39.7295V36.541H16.5449V40.1006C16.5449 40.7451 16.7077 41.2399 17.0332 41.585C17.3587 41.9268 17.8421 42.0977 18.4834 42.0977C18.8577 42.0977 19.1914 42.0293 19.4843 41.8926C19.7773 41.7526 20.0035 41.5557 20.1631 41.3018H20.2412ZM26.3838 40.7402C26.0192 40.8542 25.7067 40.9111 25.4463 40.9111C25.2509 40.9111 25.0931 40.8607 24.9726 40.7598C24.8554 40.6589 24.7968 40.5026 24.7968 40.291V37.6592H26.3252V36.541H24.7968V35.3789H23.8447L23.415 36.5312L22.5947 37.0293V37.6592H23.3076V40.291C23.3076 40.8932 23.4427 41.3457 23.7129 41.6484C23.9863 41.9479 24.4209 42.0977 25.0166 42.0977C25.5569 42.0977 26.0127 42.0146 26.3838 41.8486V40.7402ZM27.4373 35.2729C27.1644 34.9264 27 34.4824 27 34C27 32.9 27.855 32 28.9 32C29.2515 32 29.5745 32.11 29.8595 32.28L32.016 30.01C31.8545 29.71 31.75 29.37 31.75 29C31.75 28.63 31.8545 28.29 32.016 27.99L29.8595 25.72C29.5745 25.89 29.2515 26 28.9 26C27.855 26 27 25.1 27 24C27 22.9 27.855 22 28.9 22C29.28 22 29.6315 22.12 29.926 22.32L33.403 18.94C33.2605 18.66 33.175 18.34 33.175 18C33.175 16.9 34.03 16 35.075 16C36.12 16 36.975 16.9 36.975 18C36.975 19.1 36.12 20 35.075 20C34.695 20 34.3435 19.88 34.049 19.68L30.572 23.06C30.7145 23.34 30.8 23.66 30.8 24C30.8 24.37 30.6955 24.71 30.534 25.01L32.6905 27.28C32.9755 27.11 33.2985 27 33.65 27C34.5335 27 35.2745 27.64 35.4835 28.5H37.5165C37.7255 27.64 38.4665 27 39.35 27C39.7015 27 40.0245 27.11 40.3095 27.28L42.466 25.01C42.3045 24.71 42.2 24.37 42.2 24C42.2 22.9 43.055 22 44.1 22C45.145 22 46 22.9 46 24C46 25.1 45.145 26 44.1 26C43.7485 26 43.4255 25.89 43.1405 25.72L40.984 27.99C41.1455 28.29 41.25 28.63 41.25 29C41.25 30.1 40.395 31 39.35 31C38.4665 31 37.7255 30.36 37.5165 29.5H35.4835C35.2745 30.36 34.5335 31 33.65 31C33.2985 31 32.9755 30.89 32.6905 30.72L30.534 32.99C30.6955 33.29 30.8 33.63 30.8 34C30.8 35.1 29.945 36 28.9 36C28.6563 36 28.4229 35.951 28.2083 35.862C27.7431 35.8538 27.4861 35.6574 27.4373 35.2729ZM27.4922 42H28.9814V36.541H27.4922V42ZM34.0986 42H35.5879V38.4404C35.5879 37.7926 35.4235 37.2979 35.0947 36.9561C34.7659 36.611 34.2841 36.4385 33.6494 36.4385C33.2783 36.4385 32.9463 36.5068 32.6533 36.6436C32.3636 36.777 32.1357 36.9756 31.9697 37.2393H31.8867L31.6865 36.541H30.5488V42H32.0381V39.4316C32.0381 38.7871 32.1308 38.3265 32.3164 38.0498C32.5019 37.7699 32.803 37.6299 33.2197 37.6299C33.5257 37.6299 33.7487 37.7292 33.8886 37.9277C34.0286 38.123 34.0986 38.4176 34.0986 38.8115V42ZM41.872 37.2979V36.541H39.9677C39.9091 36.528 39.7741 36.5085 39.5625 36.4824C39.3541 36.4531 39.1735 36.4385 39.0205 36.4385C38.3011 36.4385 37.7477 36.6012 37.3603 36.9268C36.9729 37.2523 36.7793 37.7129 36.7793 38.3086C36.7793 38.6797 36.8623 39.002 37.0283 39.2754C37.1976 39.5488 37.4254 39.7474 37.7119 39.8711C37.484 40.0046 37.3099 40.1413 37.1894 40.2812C37.069 40.418 37.0088 40.5905 37.0088 40.7988C37.0088 40.9648 37.0657 41.1227 37.1797 41.2725C37.2936 41.4189 37.4271 41.5247 37.58 41.5898C37.1829 41.6842 36.8818 41.8421 36.6767 42.0635C36.4716 42.2848 36.3691 42.5599 36.3691 42.8887C36.3691 43.3672 36.5693 43.7383 36.9697 44.002C37.3733 44.2689 37.956 44.4023 38.7177 44.4023C39.7138 44.4023 40.4772 44.2266 41.0078 43.875C41.5416 43.5234 41.8086 43.0286 41.8086 42.3906C41.8086 41.8926 41.6507 41.515 41.3349 41.2578C41.0224 41.0007 40.5667 40.8721 39.9677 40.8721H39.04C38.4931 40.8721 38.2197 40.7646 38.2197 40.5498C38.2197 40.4066 38.2962 40.2764 38.4492 40.1592L38.6689 40.1836L38.9375 40.1982C39.6634 40.1982 40.2298 40.0355 40.6367 39.71C41.0468 39.3812 41.2519 38.9238 41.2519 38.3379C41.2519 38.0352 41.1738 37.7617 41.0175 37.5176L41.872 37.2979ZM37.9511 43.2549C37.7558 43.1377 37.6582 42.9766 37.6582 42.7715C37.6582 42.5599 37.7493 42.389 37.9316 42.2588C38.1172 42.1318 38.3466 42.0684 38.6201 42.0684H39.3916C39.7659 42.0684 40.0426 42.1074 40.2216 42.1855C40.4007 42.2637 40.4902 42.4053 40.4902 42.6104C40.4902 42.8643 40.3388 43.0645 40.0361 43.2109C39.7334 43.3574 39.3151 43.4307 38.7812 43.4307C38.4264 43.4307 38.1497 43.3721 37.9511 43.2549ZM38.4004 39.0312C38.2669 38.8587 38.2002 38.6243 38.2002 38.3281C38.2002 37.6706 38.4736 37.3418 39.0205 37.3418C39.5608 37.3418 39.831 37.6706 39.831 38.3281C39.831 38.6243 39.7659 38.8587 39.6357 39.0312C39.5055 39.2038 39.3004 39.29 39.0205 39.29C38.7438 39.29 38.5371 39.2038 38.4004 39.0312Z" fill="#5C7080"/>
</svg>
